<?xml version="1.0" encoding="utf-8"?>
<!-- Generator: Adobe Illustrator 23.0.1, SVG Export Plug-In . SVG Version: 6.00 Build 0)  -->
<svg version="1.1" id="Layer_1" xmlns="http://www.w3.org/2000/svg" xmlns:xlink="http://www.w3.org/1999/xlink" x="0px" y="0px"
	 viewBox="0 0 1366 768" style="enable-background:new 0 0 1366 768;" xml:space="preserve">
<style type="text/css">
	.st0{fill:#F2C372;stroke:#000000;stroke-miterlimit:10;}
	.st1{fill:#F2C372;stroke:#37BC6F;stroke-width:4;stroke-miterlimit:10;}
	.st2{fill:#37BC6F;stroke:#37BC6F;stroke-miterlimit:10;}
	.st3{fill:#F2C372;stroke:#9D44E2;stroke-width:4;stroke-miterlimit:10;}
	.st4{fill:#9D44E2;stroke:#9D44E2;stroke-miterlimit:10;}
	.st5{fill:#F2C372;stroke:#F90808;stroke-width:4;stroke-miterlimit:10;}
	.st6{fill:#F90808;stroke:#F90808;stroke-miterlimit:10;}
	.st7{fill:#FFFFFF;stroke:#000000;stroke-miterlimit:10;}
	.st8{fill:#F2C372;stroke:#4E6AF4;stroke-width:4;stroke-miterlimit:10;}
	.st9{fill:#4E6AF4;stroke:#4E6AF4;stroke-miterlimit:10;}
	.st10{fill:#F2C372;stroke:#50BFD1;stroke-width:4;stroke-miterlimit:10;}
	.st11{fill:#50BFD1;stroke:#50BFD1;stroke-miterlimit:10;}
	.st12{fill:#FF0000;stroke:#F90808;stroke-miterlimit:10;}
	.st13{fill:#F2C372;stroke:#EF6825;stroke-width:4;stroke-miterlimit:10;}
	.st14{fill:#EF6825;stroke:#EF6825;stroke-width:7;stroke-miterlimit:10;}
	.st15{font-family:'MyriadPro-Regular';}
	.st16{font-size:170.8246px;}
	.st17{fill:#F2C372;stroke:#E533BF;stroke-width:4;stroke-miterlimit:10;}
	.st18{fill:#E533BF;stroke:#E533BF;stroke-miterlimit:10;}
	.st19{fill:#F2C372;stroke:#E5E500;stroke-width:4;stroke-miterlimit:10;}
	.st20{fill:#E5E500;stroke:#E5E500;stroke-width:5;stroke-miterlimit:10;}
	.st21{font-size:163.763px;}
	.st22{fill:#E5E500;stroke:#E5E500;stroke-miterlimit:10;}
</style>
<g>
	<g>
		<path class="st0" d="M874.79,343.86l-159.03-0.77c-12.97-0.06-23.44-10.39-23.37-23.05l0.81-148.32
			c0.07-12.66,10.63-22.87,23.6-22.81l159.03,0.77c12.97,0.06,23.44,10.39,23.37,23.06l-0.81,148.31
			C898.32,333.71,887.75,343.92,874.79,343.86z"/>
		<path class="st1" d="M855.45,327.98l-120.5-0.83c-12.97-0.09-23.41-10.43-23.32-23.1l0.86-116.5
			c0.09-12.66,10.68-22.86,23.65-22.77l120.5,0.83c12.97,0.09,23.41,10.43,23.32,23.1l-0.86,116.5
			C879.01,317.88,868.42,328.07,855.45,327.98z"/>
		<path class="st2" d="M805.85,309.13h-21.12c-3.22,0-5.82-2.61-5.82-5.82V194.09c0-4.21,3.41-7.62,7.62-7.62h17.54
			c4.21,0,7.62,3.41,7.62,7.62v109.22C811.67,306.53,809.06,309.13,805.85,309.13z"/>
		<path class="st2" d="M843.37,211.18H747.2c-3.61,0-6.53-2.92-6.53-6.53v-15.18c0-3.61,2.92-6.53,6.53-6.53h96.17
			c3.61,0,6.53,2.92,6.53,6.53v15.18C849.9,208.26,846.98,211.18,843.37,211.18z"/>
	</g>
	<g>
		<path class="st0" d="M1325.66,335.37l-159.03-0.77c-12.97-0.06-23.44-10.39-23.37-23.05l0.81-148.32
			c0.07-12.66,10.63-22.87,23.6-22.81l159.03,0.77c12.97,0.06,23.44,10.39,23.37,23.06l-0.81,148.31
			C1349.19,325.22,1338.63,335.43,1325.66,335.37z"/>
		<path class="st3" d="M1306.33,319.49l-120.5-0.83c-12.97-0.09-23.41-10.43-23.32-23.1l0.86-116.5
			c0.09-12.66,10.68-22.86,23.65-22.77l120.5,0.83c12.97,0.09,23.41,10.43,23.32,23.1l-0.86,116.5
			C1329.88,309.39,1319.29,319.58,1306.33,319.49z"/>
		<path class="st4" d="M1219.41,299.88h-21.12c-3.22,0-5.82-2.61-5.82-5.82V184.84c0-4.21,3.41-7.62,7.62-7.62h17.54
			c4.21,0,7.62,3.41,7.62,7.62v109.22C1225.23,297.27,1222.62,299.88,1219.41,299.88z"/>
		<path class="st4" d="M1295.16,299.88h-96.17c-3.61,0-6.53-2.92-6.53-6.53v-15.18c0-3.61,2.92-6.53,6.53-6.53h96.17
			c3.61,0,6.53,2.92,6.53,6.53v15.18C1301.69,296.96,1298.76,299.88,1295.16,299.88z"/>
		<path class="st4" d="M1295.16,205.46h-96.17c-3.61,0-6.53-2.92-6.53-6.53v-15.18c0-3.61,2.92-6.53,6.53-6.53h96.17
			c3.61,0,6.53,2.92,6.53,6.53v15.18C1301.69,202.54,1298.76,205.46,1295.16,205.46z"/>
		<path class="st4" d="M1255.11,251.35h-56.12c-3.61,0-6.53-2.92-6.53-6.53v-15.18c0-3.61,2.92-6.53,6.53-6.53h56.12
			c3.61,0,6.53,2.92,6.53,6.53v15.18C1261.64,248.42,1258.71,251.35,1255.11,251.35z"/>
	</g>
	<g>
		<path class="st0" d="M187.93,403.37L28.9,402.6c-12.97-0.06-23.44-10.39-23.37-23.05l0.81-148.32
			c0.07-12.66,10.63-22.87,23.6-22.81l159.03,0.77c12.97,0.06,23.44,10.39,23.37,23.06l-0.81,148.31
			C211.46,393.22,200.89,403.43,187.93,403.37z"/>
		<path class="st5" d="M168.59,387.49l-120.5-0.83c-12.97-0.09-23.41-10.43-23.32-23.1l0.86-116.5
			c0.09-12.66,10.68-22.86,23.65-22.77l120.5,0.83c12.97,0.09,23.41,10.43,23.32,23.1l-0.86,116.5
			C192.14,377.39,181.56,387.58,168.59,387.49z"/>
		<path class="st6" d="M80.76,363.25H59.63c-3.22,0-5.82-2.61-5.82-5.82V248.21c0-4.21,3.41-7.62,7.62-7.62h17.54
			c4.21,0,7.62,3.41,7.62,7.62v109.22C86.58,360.64,83.97,363.25,80.76,363.25z"/>
		<path class="st6" d="M157.42,368.54H61.25c-3.61,0-6.53-2.92-6.53-6.53v-15.18c0-3.61,2.92-6.53,6.53-6.53h96.17
			c3.61,0,6.53,2.92,6.53,6.53v15.18C163.95,365.62,161.02,368.54,157.42,368.54z"/>
	</g>
	<g>
		<path class="st7" d="M414.56,356.16l-159.03-0.77c-12.97-0.06-23.44-10.39-23.37-23.05l0.81-148.32
			c0.07-12.66,10.63-22.87,23.6-22.81l159.03,0.77c12.97,0.06,23.44,10.39,23.37,23.06l-0.81,148.31
			C438.1,346.02,427.53,356.23,414.56,356.16z"/>
		<path class="st7" d="M395.23,340.29l-120.5-0.83c-12.97-0.09-23.41-10.43-23.32-23.1l0.86-116.5
			c0.09-12.66,10.68-22.86,23.65-22.77l120.5,0.83c12.97,0.09,23.41,10.43,23.32,23.1l-0.86,116.5
			C418.78,330.19,408.2,340.38,395.23,340.29z"/>
		<path class="st0" d="M414.56,356.16l-159.03-0.77c-12.97-0.06-23.44-10.39-23.37-23.05l0.81-148.32
			c0.07-12.66,10.63-22.87,23.6-22.81l159.03,0.77c12.97,0.06,23.44,10.39,23.37,23.06l-0.81,148.31
			C438.1,346.02,427.53,356.23,414.56,356.16z"/>
		<path class="st8" d="M395.23,340.29l-120.5-0.83c-12.97-0.09-23.41-10.43-23.32-23.1l0.86-116.5
			c0.09-12.66,10.68-22.86,23.65-22.77l120.5,0.83c12.97,0.09,23.41,10.43,23.32,23.1l-0.86,116.5
			C418.78,330.19,408.2,340.38,395.23,340.29z"/>
		<path class="st9" d="M346.54,321.89h-21.12c-3.22,0-5.82-2.61-5.82-5.82V206.85c0-4.21,3.41-7.62,7.62-7.62h17.54
			c4.21,0,7.62,3.41,7.62,7.62v109.22C352.36,319.29,349.75,321.89,346.54,321.89z"/>
		<path class="st9" d="M384.06,321.89h-96.17c-3.61,0-6.53-2.92-6.53-6.53v-15.18c0-3.61,2.92-6.53,6.53-6.53h96.17
			c3.61,0,6.53,2.92,6.53,6.53v15.18C390.59,318.97,387.66,321.89,384.06,321.89z"/>
		<path class="st9" d="M384.06,227.47h-96.17c-3.61,0-6.53-2.92-6.53-6.53v-15.18c0-3.61,2.92-6.53,6.53-6.53h96.17
			c3.61,0,6.53,2.92,6.53,6.53v15.18C390.59,224.55,387.66,227.47,384.06,227.47z"/>
	</g>
	<g>
		<path class="st0" d="M235.52,623.44l-159.03-0.77c-12.97-0.06-23.44-10.39-23.37-23.05l0.81-148.32
			c0.07-12.66,10.63-22.87,23.6-22.81l159.03,0.77c12.97,0.06,23.44,10.39,23.37,23.06l-0.81,148.31
			C259.05,613.29,248.48,623.5,235.52,623.44z"/>
		<path class="st10" d="M216.18,607.56l-120.5-0.83c-12.97-0.09-23.41-10.43-23.32-23.1l0.86-116.5
			c0.09-12.66,10.68-22.86,23.65-22.77l120.5,0.83c12.97,0.09,23.41,10.43,23.32,23.1l-0.86,116.5
			C239.74,597.46,229.15,607.65,216.18,607.56z"/>
		<path class="st11" d="M181.15,543.29h-53.52c-2.15,0-3.9-1.75-3.9-3.9v-9.07c0-2.15,1.75-3.9,3.9-3.9h53.52
			c2.15,0,3.9,1.75,3.9,3.9v9.07C185.05,541.54,183.3,543.29,181.15,543.29z"/>
		<path class="st11" d="M141.38,463.44h11.57c5.79,0,13.89,0,11.57,3.63l-37.15,104.98c-2.47,7.42-10.68,11.5-18.33,9.1l-3.46-1.08
			c-7.65-2.39-11.86-10.35-9.39-17.77l30.95-93.02C129.03,463.59,135.59,463.44,141.38,463.44z"/>
		<path class="st11" d="M163.7,463.42l-11.56,0.48c-7.29-0.46-6.88,10.2-4.78,15.79l34.44,91.67c2.75,7.31,11.1,11.05,18.66,8.34
			l3.42-1.23c7.56-2.71,11.46-10.83,8.71-18.15l-34.44-91.67C176.05,463.06,169.48,463.18,163.7,463.42z"/>
	</g>
	<g>
		<path class="st0" d="M896.32,571.39l-159.03-0.77c-12.97-0.06-23.44-10.39-23.37-23.05l0.81-148.32
			c0.07-12.66,10.63-22.87,23.6-22.81l159.03,0.77c12.97,0.06,23.44,10.39,23.37,23.06l-0.81,148.31
			C919.85,561.24,909.28,571.45,896.32,571.39z"/>
		<path class="st3" d="M876.98,555.51l-120.5-0.83c-12.97-0.09-23.41-10.43-23.32-23.1l0.86-116.5
			c0.09-12.66,10.68-22.86,23.65-22.77l120.5,0.83c12.97,0.09,23.41,10.43,23.32,23.1l-0.86,116.5
			C900.54,545.41,889.95,555.6,876.98,555.51z"/>
		<path class="st4" d="M790.06,535.9h-21.12c-3.22,0-5.82-2.61-5.82-5.82V420.86c0-4.21,3.41-7.62,7.62-7.62h17.54
			c4.21,0,7.62,3.41,7.62,7.62v109.22C795.88,533.29,793.28,535.9,790.06,535.9z"/>
		<path class="st4" d="M865.81,535.9h-96.17c-3.61,0-6.53-2.92-6.53-6.53v-15.18c0-3.61,2.92-6.53,6.53-6.53h96.17
			c3.61,0,6.53,2.92,6.53,6.53v15.18C872.34,532.98,869.42,535.9,865.81,535.9z"/>
		<path class="st4" d="M865.81,441.48h-96.17c-3.61,0-6.53-2.92-6.53-6.53v-15.18c0-3.61,2.92-6.53,6.53-6.53h96.17
			c3.61,0,6.53,2.92,6.53,6.53v15.18C872.34,438.56,869.42,441.48,865.81,441.48z"/>
		<path class="st4" d="M825.76,487.37h-56.12c-3.61,0-6.53-2.92-6.53-6.53v-15.18c0-3.61,2.92-6.53,6.53-6.53h56.12
			c3.61,0,6.53,2.92,6.53,6.53v15.18C832.29,484.44,829.37,487.37,825.76,487.37z"/>
	</g>
	<g>
		<path class="st0" d="M1112.58,626.07l-159.03-0.77c-12.97-0.06-23.44-10.39-23.37-23.05l0.81-148.32
			c0.07-12.66,10.63-22.87,23.6-22.81l159.03,0.77c12.97,0.06,23.44,10.39,23.37,23.06l-0.81,148.31
			C1136.11,615.93,1125.55,626.14,1112.58,626.07z"/>
		<path class="st5" d="M1093.25,610.2l-120.5-0.83c-12.97-0.09-23.41-10.43-23.32-23.1l0.86-116.5
			c0.09-12.66,10.68-22.86,23.65-22.77l120.5,0.83c12.97,0.09,23.41,10.43,23.32,23.1l-0.86,116.5
			C1116.8,600.1,1106.21,610.29,1093.25,610.2z"/>
		<path class="st6" d="M1005.42,585.96h-21.12c-3.22,0-5.82-2.61-5.82-5.82V470.91c0-4.21,3.41-7.62,7.62-7.62h17.54
			c4.21,0,7.62,3.41,7.62,7.62v109.22C1011.24,583.35,1008.63,585.96,1005.42,585.96z"/>
		<path class="st12" d="M1082.08,591.25h-96.17c-3.61,0-6.53-2.92-6.53-6.53v-15.18c0-3.61,2.92-6.53,6.53-6.53h96.17
			c3.61,0,6.53,2.92,6.53,6.53v15.18C1088.6,588.33,1085.68,591.25,1082.08,591.25z"/>
	</g>
	<g>
		<path class="st0" d="M638.7,378.96l-159.03-0.77c-12.97-0.06-23.44-10.39-23.37-23.05l0.81-148.32
			c0.07-12.66,10.63-22.87,23.6-22.81l159.03,0.77c12.97,0.06,23.44,10.39,23.37,23.06l-0.81,148.31
			C662.24,368.81,651.67,379.02,638.7,378.96z"/>
		<path class="st1" d="M619.37,363.08l-120.5-0.83c-12.97-0.09-23.41-10.43-23.32-23.1l0.86-116.5
			c0.09-12.66,10.68-22.86,23.65-22.77l120.5,0.83c12.97,0.09,23.41,10.43,23.32,23.1l-0.86,116.5
			C642.92,352.98,632.34,363.17,619.37,363.08z"/>
		<path class="st2" d="M569.77,344.24h-21.12c-3.22,0-5.82-2.61-5.82-5.82V229.19c0-4.21,3.41-7.62,7.62-7.62h17.54
			c4.21,0,7.62,3.41,7.62,7.62v109.22C575.59,341.63,572.98,344.24,569.77,344.24z"/>
		<path class="st2" d="M607.29,246.28h-96.17c-3.61,0-6.53-2.92-6.53-6.53v-15.18c0-3.61,2.92-6.53,6.53-6.53h96.17
			c3.61,0,6.53,2.92,6.53,6.53v15.18C613.82,243.36,610.89,246.28,607.29,246.28z"/>
	</g>
	<g>
		<path class="st0" d="M1102.17,379.16l-159.03-0.77c-12.97-0.06-23.44-10.39-23.37-23.05l0.81-148.32
			c0.07-12.66,10.63-22.87,23.6-22.81l159.03,0.77c12.97,0.06,23.44,10.39,23.37,23.06l-0.81,148.31
			C1125.7,369.01,1115.13,379.22,1102.17,379.16z"/>
		<path class="st5" d="M1082.83,363.29l-120.5-0.83c-12.97-0.09-23.41-10.43-23.32-23.1l0.86-116.5
			c0.09-12.66,10.68-22.86,23.65-22.77l120.5,0.83c12.97,0.09,23.41,10.43,23.32,23.1l-0.86,116.5
			C1106.39,353.18,1095.8,363.38,1082.83,363.29z"/>
		<path class="st6" d="M995,339.04h-21.12c-3.22,0-5.82-2.61-5.82-5.82V224c0-4.21,3.41-7.62,7.62-7.62h17.54
			c4.21,0,7.62,3.41,7.62,7.62v109.22C1000.82,336.44,998.22,339.04,995,339.04z"/>
		<path class="st6" d="M1071.66,344.34h-96.17c-3.61,0-6.53-2.92-6.53-6.53v-15.18c0-3.61,2.92-6.53,6.53-6.53h96.17
			c3.61,0,6.53,2.92,6.53,6.53v15.18C1078.19,341.41,1075.27,344.34,1071.66,344.34z"/>
	</g>
	<g>
		<path class="st0" d="M1328.99,571.61l-159.03-0.77c-12.97-0.06-23.44-10.39-23.37-23.05l0.81-148.32
			c0.07-12.66,10.63-22.87,23.6-22.81l159.03,0.77c12.97,0.06,23.44,10.39,23.37,23.06l-0.81,148.31
			C1352.52,561.46,1341.96,571.67,1328.99,571.61z"/>
		<path class="st13" d="M1309.65,555.73l-120.5-0.83c-12.97-0.09-23.41-10.43-23.32-23.1l0.86-116.5
			c0.09-12.66,10.68-22.86,23.65-22.77l120.5,0.83c12.97,0.09,23.41,10.43,23.32,23.1l-0.86,116.5
			C1333.21,545.63,1322.62,555.82,1309.65,555.73z"/>
		<text transform="matrix(0.9923 0 0 1 1208.0498 530.9609)" class="st14 st15 st16">S</text>
		<path class="st14" d="M1226.46,521.58l-1.78,2.54c-1.6,2.28-5.11,3.05-7.84,1.71l-6.51-3.18c-3.57-1.74-4.77-5.58-2.68-8.56
			l2.15-4.33c2.09-2.98,4.53,0.34,8.1,2.09l6.51,3.18C1227.14,516.38,1228.06,519.31,1226.46,521.58z"/>
		<path class="st14" d="M1290.56,430.37l-1.78,2.54c-1.6,2.28-5.11,5.21-7.84,3.87l-6.51-5.34c-3.57-1.74-4.77-5.58-2.68-8.56l0,0
			c2.09-2.98,6.68-3.98,10.25-2.24l6.51,3.18C1291.24,425.16,1292.16,428.09,1290.56,430.37z"/>
	</g>
	<g>
		<path class="st0" d="M457.71,583.49l-159.03-0.77c-12.97-0.06-23.44-10.39-23.37-23.05l0.81-148.32
			c0.07-12.66,10.63-22.87,23.6-22.81l159.03,0.77c12.97,0.06,23.44,10.39,23.37,23.06l-0.81,148.31
			C481.24,573.35,470.68,583.56,457.71,583.49z"/>
		<path class="st17" d="M438.37,567.62l-120.5-0.83c-12.97-0.09-23.41-10.43-23.32-23.1l0.86-116.5
			c0.09-12.66,10.68-22.86,23.65-22.77l120.5,0.83c12.97,0.09,23.41,10.43,23.32,23.1l-0.86,116.5
			C461.93,557.52,451.34,567.71,438.37,567.62z"/>
		<path class="st18" d="M347.29,545.96h-21.12c-3.22,0-5.82-2.61-5.82-5.82V430.92c0-4.21,3.41-7.62,7.62-7.62h17.54
			c4.21,0,7.62,3.41,7.62,7.62v109.22C353.11,543.35,350.51,545.96,347.29,545.96z"/>
		<path class="st18" d="M424.66,545.96h-21.12c-3.22,0-5.82-2.61-5.82-5.82V430.92c0-4.21,3.41-7.62,7.62-7.62h17.54
			c4.21,0,7.62,3.41,7.62,7.62v109.22C430.48,543.35,427.87,545.96,424.66,545.96z"/>
		<path class="st18" d="M415.92,545.96h-10.92c-6.37,0-11.96-0.17-14.74-5.48l-45.63-87.16c-3.64-6.95-13.25-26.48-6.07-30.01h14.56
			c9.1,0,17.09,8.68,20.73,15.64l45.63,87.16C422.25,531.42,421.4,543.26,415.92,545.96z"/>
	</g>
	<path class="st0" d="M679.91,619.8l-159.03-0.77c-12.97-0.06-23.44-10.39-23.37-23.05l0.81-148.32
		c0.07-12.66,10.63-22.87,23.6-22.81l159.03,0.77c12.97,0.06,23.44,10.39,23.37,23.06l-0.81,148.31
		C703.44,609.66,692.87,619.87,679.91,619.8z"/>
	<path class="st19" d="M660.57,603.93l-120.5-0.83c-12.97-0.09-23.41-10.43-23.32-23.1l0.86-116.5
		c0.09-12.66,10.68-22.86,23.65-22.77l120.5,0.83c12.97,0.09,23.41,10.43,23.32,23.1l-0.86,116.5
		C684.13,593.83,673.54,604.02,660.57,603.93z"/>
	<text transform="matrix(1.271 0 0 1 528.9824 580.1748)" class="st20 st15 st21">G</text>
	<path class="st22" d="M651.68,540.23h-59.43c-2.32,0-4.19-1.88-4.19-4.19v-14.23c0-2.32,1.88-4.19,4.19-4.19h59.43
		c2.32,0,4.19,1.88,4.19,4.19v14.23C655.87,538.36,653.99,540.23,651.68,540.23z"/>
</g>
</svg>
