<?xml version="1.0" encoding="utf-8"?>
<!-- Generator: Adobe Illustrator 23.0.1, SVG Export Plug-In . SVG Version: 6.00 Build 0)  -->
<svg version="1.1" xmlns="http://www.w3.org/2000/svg" xmlns:xlink="http://www.w3.org/1999/xlink" x="0px" y="0px"
	 viewBox="0 0 1366 768" style="enable-background:new 0 0 1366 768;" xml:space="preserve">
<style type="text/css">
	.st0{fill:#F2C372;stroke:#000000;stroke-miterlimit:10;}
	.st1{fill:#F2C372;stroke:#37BC6F;stroke-width:4;stroke-miterlimit:10;}
	.st2{fill:#37BC6F;stroke:#37BC6F;stroke-miterlimit:10;}
	.st3{fill:#F2C372;stroke:#9D44E2;stroke-width:4;stroke-miterlimit:10;}
	.st4{fill:#9D44E2;stroke:#9D44E2;stroke-miterlimit:10;}
	.st5{fill:#F2C372;stroke:#F90808;stroke-width:4;stroke-miterlimit:10;}
	.st6{fill:#F90808;stroke:#F90808;stroke-miterlimit:10;}
	.st7{fill:#FFFFFF;stroke:#000000;stroke-miterlimit:10;}
	.st8{fill:#F2C372;stroke:#4E6AF4;stroke-width:4;stroke-miterlimit:10;}
	.st9{fill:#4E6AF4;stroke:#4E6AF4;stroke-miterlimit:10;}
	.st10{fill:#F2C372;stroke:#50BFD1;stroke-width:4;stroke-miterlimit:10;}
	.st11{fill:#50BFD1;stroke:#50BFD1;stroke-miterlimit:10;}
	.st12{fill:#FF0000;stroke:#F90808;stroke-miterlimit:10;}
	.st13{fill:#F2C372;stroke:#E533BF;stroke-width:4;stroke-miterlimit:10;}
	.st14{fill:#E533BF;stroke:#E533BF;stroke-miterlimit:10;}
	.st15{fill:#F2C372;stroke:#E5E500;stroke-width:4;stroke-miterlimit:10;}
	.st16{fill:#E5E500;stroke:#E5E500;stroke-width:5;stroke-miterlimit:10;}
	.st17{font-family:'MyriadPro-Regular';}
	.st18{font-size:124.0283px;}
	.st19{fill:#E5E500;stroke:#E5E500;stroke-miterlimit:10;}
	.st20{fill:#FFC299;stroke:#FFC299;stroke-miterlimit:10;}
	.st21{fill:#7F451D;stroke:#7F451D;stroke-miterlimit:10;}
	.st22{opacity:0.41;fill:#020202;stroke:#3D3DF9;stroke-miterlimit:10;}
	.st23{opacity:0.79;fill:#3D3DF9;stroke:#3D3DF9;stroke-miterlimit:10;}
	.st24{fill:#0C0CAF;stroke:#0C0CAF;stroke-miterlimit:10;}
	.st25{fill:#EF975B;stroke:#FFC299;stroke-miterlimit:10;}
	.st26{fill:#070707;stroke:#070707;stroke-miterlimit:10;}
	.st27{fill:#FFFFFF;stroke:#FFFFFF;stroke-miterlimit:10;}
	.st28{fill:#F22035;stroke:#FFC299;stroke-miterlimit:10;}
	.st29{fill:#FCFCFC;stroke:#020202;stroke-miterlimit:10;}
	.st30{fill:#A56437;stroke:#A56437;stroke-miterlimit:10;}
	.st31{fill:#4C250A;stroke:#7F451D;stroke-miterlimit:10;}
	.st32{fill:#4C250A;stroke:#4C250A;stroke-miterlimit:10;}
	.st33{opacity:0.79;fill:#3EF761;stroke:#3EF761;stroke-miterlimit:10;}
	.st34{opacity:0.79;fill:#258730;stroke:#258730;stroke-miterlimit:10;}
	.st35{fill:#1BE21B;stroke:#1BE21B;stroke-miterlimit:10;}
	.st36{fill:#EF975B;stroke:#EF975B;stroke-miterlimit:10;}
	.st37{fill:#F22035;stroke:#A56437;stroke-miterlimit:10;}
	.st38{fill:#F4BA5B;stroke:#F4BA5B;stroke-miterlimit:10;}
	.st39{fill:#DB9633;stroke:#F4BA5B;stroke-miterlimit:10;}
	.st40{fill:#382304;stroke:#382304;stroke-miterlimit:10;}
	.st41{fill:#E2351E;stroke:#E2351E;stroke-miterlimit:10;}
	.st42{fill:#F2C372;}
	.st43{fill:#EF6825;}
	.st44{fill:none;}
</style>
<g id="Layer_1">
	<g id="Layer_3">
	</g>
</g>
<g id="Large_Box">
</g>
<g id="Layer_4">
</g>
<g id="Layer_5">
	<g>
		<path class="st0" d="M805.89,455.69l-103.83-0.58c-8.47-0.05-15.3-7.87-15.26-17.46l0.53-112.33c0.04-9.59,6.94-17.32,15.41-17.28
			l103.83,0.58c8.47,0.05,15.3,7.87,15.26,17.46l-0.53,112.33C821.25,448.01,814.35,455.74,805.89,455.69z"/>
		<path class="st1" d="M793.26,443.67l-78.68-0.63c-8.47-0.07-15.29-7.9-15.22-17.49l0.56-88.23c0.06-9.59,6.97-17.31,15.44-17.24
			l78.68,0.63c8.47,0.07,15.29,7.9,15.23,17.49l-0.56,88.23C808.64,436.02,801.73,443.74,793.26,443.67z"/>
		<path class="st2" d="M758.86,429.39h-9.75c-3.22,0-5.82-2.61-5.82-5.82v-79.46c0-4.21,3.41-7.62,7.62-7.62h6.16
			c4.21,0,7.62,3.41,7.62,7.62v79.46C764.68,426.79,762.07,429.39,758.86,429.39z"/>
		<path class="st2" d="M783.11,355.21h-58.26c-3.61,0-6.53-2.92-6.53-6.53v-8.33c0-3.61,2.92-6.53,6.53-6.53h58.26
			c3.61,0,6.53,2.92,6.53,6.53v8.33C789.64,352.29,786.71,355.21,783.11,355.21z"/>
	</g>
	<g>
		<path class="st0" d="M1100.27,449.26l-103.83-0.58c-8.47-0.05-15.3-7.87-15.26-17.46l0.53-112.33
			c0.04-9.59,6.94-17.32,15.41-17.28l103.83,0.58c8.47,0.05,15.3,7.87,15.26,17.46l-0.53,112.33
			C1115.64,441.58,1108.74,449.31,1100.27,449.26z"/>
		<path class="st3" d="M1087.65,437.24l-78.68-0.63c-8.47-0.07-15.29-7.9-15.22-17.49l0.56-88.23c0.06-9.59,6.97-17.31,15.44-17.24
			l78.68,0.63c8.47,0.07,15.29,7.9,15.23,17.49l-0.56,88.23C1103.03,429.59,1096.11,437.31,1087.65,437.24z"/>
		<path class="st4" d="M1028.87,422.39h-9.75c-3.22,0-5.82-2.61-5.82-5.82V337.1c0-4.21,3.41-7.62,7.62-7.62h6.16
			c4.21,0,7.62,3.41,7.62,7.62v79.46C1034.7,419.78,1032.09,422.39,1028.87,422.39z"/>
		<path class="st4" d="M1078.09,422.39h-58.26c-3.61,0-6.53-2.92-6.53-6.53v-8.33c0-3.61,2.92-6.53,6.53-6.53h58.26
			c3.61,0,6.53,2.92,6.53,6.53v8.33C1084.62,419.46,1081.69,422.39,1078.09,422.39z"/>
		<path class="st4" d="M1078.09,350.87h-58.26c-3.61,0-6.53-2.92-6.53-6.53v-8.33c0-3.61,2.92-6.53,6.53-6.53h58.26
			c3.61,0,6.53,2.92,6.53,6.53v8.33C1084.62,347.95,1081.69,350.87,1078.09,350.87z"/>
		<path class="st4" d="M1051.94,385.63h-32.11c-3.61,0-6.53-2.92-6.53-6.53v-8.33c0-3.61,2.92-6.53,6.53-6.53h32.11
			c3.61,0,6.53,2.92,6.53,6.53v8.33C1058.47,382.7,1055.55,385.63,1051.94,385.63z"/>
	</g>
	<g>
		<path class="st0" d="M357.42,500.76l-103.83-0.58c-8.47-0.05-15.3-7.87-15.26-17.46l0.53-112.33c0.04-9.59,6.94-17.32,15.41-17.28
			l103.83,0.58c8.47,0.05,15.3,7.87,15.26,17.46l-0.53,112.33C372.79,493.08,365.89,500.81,357.42,500.76z"/>
		<path class="st5" d="M344.8,488.74l-78.68-0.63c-8.47-0.07-15.29-7.9-15.22-17.49l0.56-88.23c0.06-9.59,6.97-17.31,15.44-17.24
			l78.68,0.63c8.47,0.07,15.29,7.9,15.23,17.49l-0.56,88.23C360.18,481.09,353.27,488.81,344.8,488.74z"/>
		<path class="st6" d="M285.43,470.38h-9.75c-3.22,0-5.82-2.61-5.82-5.82V385.1c0-4.21,3.41-7.62,7.62-7.62h6.16
			c4.21,0,7.62,3.41,7.62,7.62v79.46C291.25,467.77,288.65,470.38,285.43,470.38z"/>
		<path class="st6" d="M335.24,474.39h-58.26c-3.61,0-6.53-2.92-6.53-6.53v-8.33c0-3.61,2.92-6.53,6.53-6.53h58.26
			c3.61,0,6.53,2.92,6.53,6.53v8.33C341.77,471.47,338.84,474.39,335.24,474.39z"/>
	</g>
	<g>
		<path class="st7" d="M505.4,465.01l-103.83-0.58c-8.47-0.05-15.3-7.87-15.26-17.46l0.53-112.33c0.04-9.59,6.94-17.32,15.41-17.28
			l103.83,0.58c8.47,0.05,15.3,7.87,15.26,17.46l-0.53,112.33C520.76,457.33,513.87,465.06,505.4,465.01z"/>
		<path class="st7" d="M492.77,452.99l-78.68-0.63c-8.47-0.07-15.29-7.9-15.22-17.49l0.56-88.23c0.06-9.59,6.97-17.31,15.44-17.24
			l78.68,0.63c8.47,0.07,15.29,7.9,15.23,17.49l-0.56,88.23C508.16,445.34,501.24,453.06,492.77,452.99z"/>
		<path class="st0" d="M505.4,465.01l-103.83-0.58c-8.47-0.05-15.3-7.87-15.26-17.46l0.53-112.33c0.04-9.59,6.94-17.32,15.41-17.28
			l103.83,0.58c8.47,0.05,15.3,7.87,15.26,17.46l-0.53,112.33C520.76,457.33,513.87,465.06,505.4,465.01z"/>
		<path class="st8" d="M492.77,452.99l-78.68-0.63c-8.47-0.07-15.29-7.9-15.22-17.49l0.56-88.23c0.06-9.59,6.97-17.31,15.44-17.24
			l78.68,0.63c8.47,0.07,15.29,7.9,15.23,17.49l-0.56,88.23C508.16,445.34,501.24,453.06,492.77,452.99z"/>
		<path class="st9" d="M458.96,439.06h-9.75c-3.22,0-5.82-2.61-5.82-5.82v-79.46c0-4.21,3.41-7.62,7.62-7.62h6.16
			c4.21,0,7.62,3.41,7.62,7.62v79.46C464.78,436.45,462.18,439.06,458.96,439.06z"/>
		<path class="st9" d="M483.22,439.06h-58.26c-3.61,0-6.53-2.92-6.53-6.53v-8.33c0-3.61,2.92-6.53,6.53-6.53h58.26
			c3.61,0,6.53,2.92,6.53,6.53v8.33C489.74,436.13,486.82,439.06,483.22,439.06z"/>
		<path class="st9" d="M483.22,367.55h-58.26c-3.61,0-6.53-2.92-6.53-6.53v-8.33c0-3.61,2.92-6.53,6.53-6.53h58.26
			c3.61,0,6.53,2.92,6.53,6.53v8.33C489.74,364.62,486.82,367.55,483.22,367.55z"/>
	</g>
	<g>
		<path class="st0" d="M388.5,667.43l-103.83-0.58c-8.47-0.05-15.3-7.87-15.26-17.46l0.53-112.33c0.04-9.59,6.94-17.32,15.41-17.28
			l103.83,0.58c8.47,0.05,15.3,7.87,15.26,17.46l-0.53,112.33C403.86,659.75,396.96,667.48,388.5,667.43z"/>
		<path class="st10" d="M375.87,655.41l-78.68-0.63c-8.47-0.07-15.29-7.9-15.22-17.49l0.56-88.23c0.06-9.59,6.97-17.31,15.44-17.24
			l78.68,0.63c8.47,0.07,15.29,7.9,15.23,17.49l-0.56,88.23C391.25,647.76,384.34,655.48,375.87,655.41z"/>
		<path class="st11" d="M351.65,606.73h-32.23c-2.15,0-3.9-1.75-3.9-3.9v-4.98c0-2.15,1.75-3.9,3.9-3.9h32.23
			c2.15,0,3.9,1.75,3.9,3.9v4.98C355.55,604.98,353.8,606.73,351.65,606.73z"/>
		<path class="st11" d="M327.03,546.26h7.56c3.78,0,9.07,0,7.56,2.75l-24.26,79.51c-1.61,5.62-6.97,8.71-11.97,6.89l-2.26-0.82
			c-5-1.81-7.74-7.84-6.13-13.46l20.21-70.45C318.97,546.37,323.25,546.26,327.03,546.26z"/>
		<path class="st11" d="M341.61,546.24l-7.55,0.36c-4.76-0.35-4.49,7.73-3.12,11.96l22.49,69.43c1.79,5.54,7.25,8.37,12.18,6.31
			l2.23-0.93c4.93-2.05,7.48-8.2,5.69-13.74l-22.49-69.43C349.67,545.97,345.38,546.06,341.61,546.24z"/>
	</g>
	<g>
		<path class="st0" d="M819.94,628.02l-103.83-0.58c-8.47-0.05-15.3-7.87-15.26-17.46l0.53-112.33c0.04-9.59,6.94-17.32,15.41-17.28
			l103.83,0.58c8.47,0.05,15.3,7.87,15.26,17.46l-0.53,112.33C835.31,620.33,828.41,628.06,819.94,628.02z"/>
		<path class="st3" d="M807.32,615.99l-78.68-0.63c-8.47-0.07-15.29-7.9-15.22-17.49l0.56-88.23c0.06-9.59,6.97-17.31,15.44-17.24
			l78.68,0.63c8.47,0.07,15.29,7.9,15.23,17.49l-0.56,88.23C822.7,608.34,815.79,616.06,807.32,615.99z"/>
		<path class="st4" d="M748.55,601.14h-9.75c-3.22,0-5.82-2.61-5.82-5.82v-79.46c0-4.21,3.41-7.62,7.62-7.62h6.16
			c4.21,0,7.62,3.41,7.62,7.62v79.46C754.37,598.53,751.76,601.14,748.55,601.14z"/>
		<path class="st4" d="M797.76,601.14H739.5c-3.61,0-6.53-2.92-6.53-6.53v-8.33c0-3.61,2.92-6.53,6.53-6.53h58.26
			c3.61,0,6.53,2.92,6.53,6.53v8.33C804.29,598.22,801.37,601.14,797.76,601.14z"/>
		<path class="st4" d="M797.76,529.63H739.5c-3.61,0-6.53-2.92-6.53-6.53v-8.33c0-3.61,2.92-6.53,6.53-6.53h58.26
			c3.61,0,6.53,2.92,6.53,6.53v8.33C804.29,526.7,801.37,529.63,797.76,529.63z"/>
		<path class="st4" d="M771.61,564.38H739.5c-3.61,0-6.53-2.92-6.53-6.53v-8.33c0-3.61,2.92-6.53,6.53-6.53h32.11
			c3.61,0,6.53,2.92,6.53,6.53v8.33C778.14,561.46,775.22,564.38,771.61,564.38z"/>
	</g>
	<g>
		<path class="st0" d="M961.15,669.43l-103.83-0.58c-8.47-0.05-15.3-7.87-15.26-17.46l0.53-112.33c0.04-9.59,6.94-17.32,15.41-17.28
			l103.83,0.58c8.47,0.05,15.3,7.87,15.26,17.46l-0.53,112.33C976.51,661.75,969.61,669.48,961.15,669.43z"/>
		<path class="st5" d="M948.52,657.41l-78.68-0.63c-8.47-0.07-15.29-7.9-15.22-17.49l0.56-88.23c0.06-9.59,6.97-17.31,15.44-17.24
			l78.68,0.63c8.47,0.07,15.29,7.9,15.23,17.49l-0.56,88.23C963.9,649.76,956.99,657.48,948.52,657.41z"/>
		<path class="st6" d="M889.16,639.05h-9.75c-3.22,0-5.82-2.61-5.82-5.82v-79.46c0-4.21,3.41-7.62,7.62-7.62h6.16
			c4.21,0,7.62,3.41,7.62,7.62v79.46C894.98,636.44,892.37,639.05,889.16,639.05z"/>
		<path class="st12" d="M938.96,643.06h-58.26c-3.61,0-6.53-2.92-6.53-6.53v-8.33c0-3.61,2.92-6.53,6.53-6.53h58.26
			c3.61,0,6.53,2.92,6.53,6.53v8.33C945.49,640.14,942.57,643.06,938.96,643.06z"/>
	</g>
	<g>
		<path class="st0" d="M651.75,482.28l-103.83-0.58c-8.47-0.05-15.3-7.87-15.26-17.46l0.53-112.33c0.04-9.59,6.94-17.32,15.41-17.28
			l103.83,0.58c8.47,0.05,15.3,7.87,15.26,17.46L667.15,465C667.11,474.59,660.21,482.32,651.75,482.28z"/>
		<path class="st1" d="M639.12,470.25l-78.68-0.63c-8.47-0.07-15.29-7.9-15.22-17.49l0.56-88.23c0.06-9.59,6.97-17.31,15.44-17.24
			l78.68,0.63c8.47,0.07,15.29,7.9,15.23,17.49l-0.56,88.23C654.5,462.6,647.59,470.32,639.12,470.25z"/>
		<path class="st2" d="M604.71,455.98h-9.75c-3.22,0-5.82-2.61-5.82-5.82V370.7c0-4.21,3.41-7.62,7.62-7.62h6.16
			c4.21,0,7.62,3.41,7.62,7.62v79.46C610.54,453.37,607.93,455.98,604.71,455.98z"/>
		<path class="st2" d="M628.97,381.79h-58.26c-3.61,0-6.53-2.92-6.53-6.53v-8.33c0-3.61,2.92-6.53,6.53-6.53h58.26
			c3.61,0,6.53,2.92,6.53,6.53v8.33C635.5,378.87,632.57,381.79,628.97,381.79z"/>
	</g>
	<g>
		<path class="st0" d="M954.35,482.43l-103.83-0.58c-8.47-0.05-15.3-7.87-15.26-17.46l0.53-112.33c0.04-9.59,6.94-17.32,15.41-17.28
			l103.83,0.58c8.47,0.05,15.3,7.87,15.26,17.46l-0.53,112.33C969.71,474.74,962.81,482.48,954.35,482.43z"/>
		<path class="st5" d="M941.72,470.41l-78.68-0.63c-8.47-0.07-15.29-7.9-15.22-17.49l0.56-88.23c0.06-9.59,6.97-17.31,15.44-17.24
			l78.68,0.63c8.47,0.07,15.29,7.9,15.23,17.49l-0.56,88.23C957.1,462.75,950.19,470.47,941.72,470.41z"/>
		<path class="st6" d="M882.36,452.04h-9.75c-3.22,0-5.82-2.61-5.82-5.82v-79.46c0-4.21,3.41-7.62,7.62-7.62h6.16
			c4.21,0,7.62,3.41,7.62,7.62v79.46C888.18,449.44,885.57,452.04,882.36,452.04z"/>
		<path class="st6" d="M932.16,456.05h-58.26c-3.61,0-6.53-2.92-6.53-6.53v-8.33c0-3.61,2.92-6.53,6.53-6.53h58.26
			c3.61,0,6.53,2.92,6.53,6.53v8.33C938.69,453.13,935.77,456.05,932.16,456.05z"/>
	</g>
	<g>
		<path class="st0" d="M533.57,637.18l-103.83-0.58c-8.47-0.05-15.3-7.87-15.26-17.46l0.53-112.33c0.04-9.59,6.94-17.32,15.41-17.28
			l103.83,0.58c8.47,0.05,15.3,7.87,15.26,17.46l-0.53,112.33C548.94,629.5,542.04,637.23,533.57,637.18z"/>
		<path class="st13" d="M520.95,625.16l-78.68-0.63c-8.47-0.07-15.29-7.9-15.22-17.49l0.56-88.23c0.06-9.59,6.97-17.31,15.44-17.24
			l78.68,0.63c8.47,0.07,15.29,7.9,15.23,17.49l-0.56,88.23C536.33,617.51,529.41,625.23,520.95,625.16z"/>
		<path class="st14" d="M459.46,608.76h-9.75c-3.22,0-5.82-2.61-5.82-5.82v-79.46c0-4.21,3.41-7.62,7.62-7.62h6.16
			c4.21,0,7.62,3.41,7.62,7.62v79.46C465.28,606.15,462.67,608.76,459.46,608.76z"/>
		<path class="st14" d="M509.97,608.76h-9.75c-3.22,0-5.82-2.61-5.82-5.82v-79.46c0-4.21,3.41-7.62,7.62-7.62h6.16
			c4.21,0,7.62,3.41,7.62,7.62v79.46C515.79,606.15,513.19,608.76,509.97,608.76z"/>
		<path class="st14" d="M506.28,608.76h-7.13c-4.16,0-7.81-0.13-9.63-4.15l-29.79-66.01c-2.38-5.27-8.65-20.06-3.97-22.73h9.51
			c5.94,0,11.16,6.58,13.54,11.84l29.79,66.01C510.42,597.74,509.86,606.71,506.28,608.76z"/>
	</g>
	<g>
		<path class="st0" d="M678.65,664.68l-103.83-0.58c-8.47-0.05-15.3-7.87-15.26-17.46l0.53-112.33c0.04-9.59,6.94-17.32,15.41-17.28
			l103.83,0.58c8.47,0.05,15.3,7.87,15.26,17.46l-0.53,112.33C694.01,657,687.11,664.73,678.65,664.68z"/>
		<path class="st15" d="M666.02,652.66l-78.68-0.63c-8.47-0.07-15.29-7.9-15.22-17.49l0.56-88.23c0.06-9.59,6.97-17.31,15.44-17.24
			l78.68,0.63c8.47,0.07,15.29,7.9,15.23,17.49l-0.56,88.23C681.4,645.01,674.49,652.73,666.02,652.66z"/>
		<text transform="matrix(1.0957 0 0 1 580.1064 634.6689)" class="st16 st17 st18">G</text>
		<path class="st19" d="M655.43,602.72H629c-2.32,0-4.19-1.88-4.19-4.19v-5.35c0-2.32,1.88-4.19,4.19-4.19h26.43
			c2.32,0,4.19,1.88,4.19,4.19v5.35C659.63,600.84,657.75,602.72,655.43,602.72z"/>
	</g>
	<g>
		<path class="st20" d="M1349.64,274.61c-11.29,75.96-73.65,126.94-139.26,113.87c-65.62-13.08-109.66-85.25-98.36-161.22"/>
		<ellipse class="st21" cx="1148.2" cy="247.13" rx="18.77" ry="17.39"/>
		<ellipse class="st21" cx="1109.41" cy="235.54" rx="26.7" ry="18.35"/>
		<path class="st22" d="M1097.99,226.06c11.78-82.07,79.85-137.35,152.04-123.47c72.19,13.88,81.97,84.16,70.19,166.23
			L1097.99,226.06z"/>
		<path class="st21" d="M1359.84,276.27c-1.37,10.01-9.42,16.85-17.97,15.28c-8.55-1.57-14.37-10.96-13-20.98"/>
		<path class="st23" d="M1098,226.01c11.78-82.07,79.85-137.35,152.04-123.47c72.19,13.88,121.16,91.67,109.39,173.74"/>
		<path class="st24" d="M1158.62,238.28l-121.24-23.23c-5.55-1.06-9.31-7.14-8.39-13.56v0c0.92-6.43,6.16-10.77,11.72-9.71
			l121.24,23.23c5.55,1.06,9.31,7.14,8.39,13.56v0C1169.42,235,1164.17,239.35,1158.62,238.28z"/>
		<ellipse class="st24" cx="1248.86" cy="93.62" rx="14.18" ry="16.42"/>
		<ellipse class="st20" cx="1315.9" cy="256.79" rx="19.47" ry="33.92"/>
		<ellipse class="st25" cx="1315.9" cy="256.79" rx="12.38" ry="24.31"/>
		<path class="st21" d="M1295.41,263.46c-1.92,14.23-8.1,24.93-13.79,23.9c-5.69-1.03-8.74-13.4-6.82-27.63"/>
		<ellipse class="st26" cx="1177.82" cy="284.32" rx="11.68" ry="23.66"/>
		<ellipse class="st27" cx="1174.07" cy="276.59" rx="5.64" ry="13.68"/>
		<ellipse class="st27" cx="1177.4" cy="296.87" rx="2.92" ry="3.38"/>
		<ellipse class="st26" cx="1129.43" cy="287.21" rx="11.68" ry="23.66"/>
		<ellipse class="st27" cx="1125.68" cy="279.49" rx="5.64" ry="13.68"/>
		<ellipse class="st27" cx="1129.01" cy="299.77" rx="2.92" ry="3.38"/>
		<path class="st28" d="M1205.35,330.19c0,29.6-2.31,42.5-24.2,42.5c-21.89,0-24.2-12.89-24.2-42.5"/>
		<path class="st29" d="M1173.22,329.84c0,5.46-2.8,9.89-6.25,9.89c-3.45,0-6.25-4.43-6.25-9.89"/>
		<path class="st29" d="M1186.57,329.84c0,5.46-2.8,9.89-6.25,9.89c-3.45,0-6.25-4.43-6.25-9.89"/>
		<path class="st29" d="M1186.57,329.84c0,5.46-2.8,9.89-6.25,9.89c-3.45,0-6.25-4.43-6.25-9.89"/>
		<path class="st29" d="M1199.09,329.84c0,5.46-2.8,9.89-6.25,9.89c-3.45,0-6.25-4.43-6.25-9.89"/>
	</g>
	<g>
		<path class="st30" d="M18.56,307.03c11.29,75.96,73.65,126.94,139.26,113.87s109.66-85.25,98.36-161.22"/>
		<ellipse class="st31" cx="220" cy="279.55" rx="18.77" ry="17.39"/>
		<ellipse class="st32" cx="258.8" cy="267.96" rx="26.7" ry="18.35"/>
		<path class="st22" d="M270.21,258.48c-11.78-82.07-79.85-137.35-152.04-123.47s-81.97,84.16-70.19,166.23L270.21,258.48z"/>
		<path class="st32" d="M8.37,308.69c1.37,10.01,9.42,16.85,17.97,15.28c8.55-1.57,14.37-10.96,13-20.98"/>
		<path class="st33" d="M270.21,258.43c-11.78-82.07-79.85-137.35-152.04-123.47S-2.99,226.63,8.78,308.71"/>
		<path class="st34" d="M209.58,270.7l121.24-23.23c5.55-1.06,9.31-7.14,8.39-13.56v0c-0.92-6.43-6.16-10.77-11.72-9.71
			l-121.24,23.23c-5.55,1.06-9.31,7.14-8.39,13.56l0,0C198.78,267.42,204.03,271.77,209.58,270.7z"/>
		<ellipse class="st35" cx="119.34" cy="126.04" rx="14.18" ry="16.42"/>
		<ellipse class="st30" cx="52.3" cy="289.21" rx="19.47" ry="33.92"/>
		<ellipse class="st36" cx="52.3" cy="289.21" rx="12.38" ry="24.31"/>
		<path class="st32" d="M72.79,295.89c1.92,14.23,8.1,24.93,13.79,23.9c5.69-1.03,8.74-13.4,6.82-27.63"/>
		<ellipse class="st26" cx="190.38" cy="316.74" rx="11.68" ry="23.66"/>
		<ellipse class="st27" cx="194.14" cy="309.01" rx="5.64" ry="13.68"/>
		<ellipse class="st27" cx="190.8" cy="329.3" rx="2.92" ry="3.38"/>
		<ellipse class="st26" cx="238.77" cy="319.64" rx="11.68" ry="23.66"/>
		<ellipse class="st27" cx="242.53" cy="311.91" rx="5.64" ry="13.68"/>
		<ellipse class="st27" cx="239.19" cy="332.19" rx="2.92" ry="3.38"/>
		<path class="st37" d="M162.85,362.62c0,29.6,2.31,42.5,24.2,42.5s24.2-12.89,24.2-42.5"/>
		<path class="st29" d="M194.98,362.26c0,5.46,2.8,9.89,6.25,9.89c3.45,0,6.25-4.43,6.25-9.89"/>
		<path class="st29" d="M181.63,362.26c0,5.46,2.8,9.89,6.25,9.89c3.45,0,6.25-4.43,6.25-9.89"/>
		<path class="st29" d="M181.63,362.26c0,5.46,2.8,9.89,6.25,9.89c3.45,0,6.25-4.43,6.25-9.89"/>
		<path class="st29" d="M169.12,362.26c0,5.46,2.8,9.89,6.25,9.89c3.45,0,6.25-4.43,6.25-9.89"/>
	</g>
	<ellipse class="st38" cx="653.52" cy="148.49" rx="123.36" ry="143.84"/>
	<g>
		<ellipse class="st26" cx="682.11" cy="140.26" rx="11.68" ry="23.66"/>
		<ellipse class="st27" cx="678.35" cy="132.54" rx="5.64" ry="13.68"/>
		<ellipse class="st27" cx="681.69" cy="152.82" rx="2.92" ry="3.38"/>
	</g>
	<path class="st37" d="M629.65,223.29c0,29.6,2.31,42.5,24.2,42.5s24.2-12.89,24.2-42.5"/>
	<path class="st29" d="M661.78,222.94c0,5.46,2.8,9.89,6.25,9.89s6.25-4.43,6.25-9.89"/>
	<path class="st29" d="M648.43,222.94c0,5.46,2.8,9.89,6.25,9.89s6.25-4.43,6.25-9.89"/>
	<path class="st29" d="M648.43,222.94c0,5.46,2.8,9.89,6.25,9.89s6.25-4.43,6.25-9.89"/>
	<path class="st29" d="M635.92,222.94c0,5.46,2.8,9.89,6.25,9.89s6.25-4.43,6.25-9.89"/>
	<ellipse class="st26" cx="620.07" cy="140.02" rx="11.68" ry="23.66"/>
	<ellipse class="st27" cx="623.83" cy="132.29" rx="5.64" ry="13.68"/>
	<ellipse class="st27" cx="620.49" cy="152.57" rx="2.92" ry="3.38"/>
	<ellipse class="st39" cx="587.58" cy="204.83" rx="18.76" ry="35.79"/>
	<ellipse class="st39" cx="712.64" cy="199.53" rx="18.76" ry="35.79"/>
	<g>
		<ellipse class="st40" cx="528.46" cy="210.8" rx="28.99" ry="33.81"/>
		<ellipse class="st40" cx="534.71" cy="155.78" rx="26.15" ry="30.49"/>
		<ellipse class="st40" cx="541.53" cy="109.38" rx="32.97" ry="38.45"/>
		<ellipse class="st40" cx="558.58" cy="56.36" rx="30.7" ry="35.79"/>
		<ellipse class="st40" cx="523.91" cy="269.13" rx="28.99" ry="33.81"/>
		<ellipse class="st41" cx="527.32" cy="237.98" rx="29.66" ry="7.02"/>
	</g>
	<path class="st40" d="M749.6,43.76c0,21.6-43.27,53.69-96.64,53.69c-53.37,0-96.64-32.09-96.64-53.69s43.27-39.11,96.64-39.11
		C706.33,4.65,749.6,22.16,749.6,43.76z"/>
	<g>
		<ellipse class="st40" cx="771.77" cy="206.82" rx="28.99" ry="33.81"/>
		<ellipse class="st40" cx="765.51" cy="151.81" rx="26.15" ry="30.49"/>
		<ellipse class="st40" cx="758.69" cy="105.41" rx="32.97" ry="38.45"/>
		<ellipse class="st40" cx="741.64" cy="52.38" rx="30.7" ry="35.79"/>
		<ellipse class="st40" cx="776.31" cy="265.15" rx="28.99" ry="33.81"/>
		<ellipse class="st41" cx="772.9" cy="234" rx="29.66" ry="7.02"/>
	</g>
	<g>
		<g>
			<path class="st42" d="M1101.24,614.23l-103.33-0.58c-8.43-0.05-15.23-7.83-15.18-17.37l0.52-111.76
				c0.04-9.54,6.91-17.23,15.33-17.19l103.33,0.58c8.43,0.05,15.23,7.83,15.19,17.37l-0.52,111.75
				C1116.53,606.58,1109.67,614.27,1101.24,614.23z"/>
			<path d="M1101.32,614.6c-0.03,0-0.05,0-0.08,0l-103.33-0.58c-4.16-0.02-8.07-1.88-11-5.23c-2.93-3.35-4.53-7.8-4.51-12.52
				l0.52-111.76c0.05-9.7,7.03-17.56,15.58-17.56c0.03,0,0.05,0,0.08,0l103.33,0.58c4.16,0.02,8.07,1.88,11,5.23
				c2.93,3.35,4.53,7.8,4.51,12.52l-0.52,111.75C1116.85,606.74,1109.87,614.6,1101.32,614.6z M1101.24,613.85c0.02,0,0.05,0,0.08,0
				c8.2,0,14.89-7.52,14.93-16.81l0.52-111.75c0.02-4.51-1.51-8.77-4.32-11.98c-2.81-3.21-6.55-4.99-10.54-5.02l-103.33-0.58
				c-0.02,0-0.05,0-0.08,0c-8.2,0-14.89,7.52-14.93,16.81l-0.52,111.76c-0.02,4.51,1.51,8.77,4.32,11.98
				c2.81,3.21,6.55,4.99,10.54,5.01L1101.24,613.85z"/>
		</g>
		<g>
			<path class="st42" d="M1088.56,602.55l-78.07-0.63c-8.4-0.07-15.17-7.85-15.11-17.38l0.55-87.65c0.06-9.53,6.92-17.2,15.32-17.13
				l78.07,0.63c8.4,0.07,15.17,7.85,15.11,17.38l-0.56,87.65C1103.83,594.95,1096.97,602.62,1088.56,602.55z"/>
			<path class="st43" d="M1088.67,604.06c-0.04,0-0.08,0-0.12,0l-78.07-0.63c-4.41-0.04-8.54-2.02-11.63-5.58
				c-3.1-3.57-4.8-8.3-4.76-13.32l0.55-87.65c0.07-10.3,7.46-18.63,16.51-18.63c0.04,0,0.08,0,0.12,0l78.07,0.63
				c4.41,0.04,8.54,2.02,11.63,5.58c3.1,3.57,4.8,8.3,4.76,13.32l-0.55,87.65C1105.12,595.73,1097.72,604.06,1088.67,604.06z
				 M1011.15,481.27c-7.63,0-13.86,6.99-13.92,15.63l-0.55,87.65c-0.03,4.2,1.39,8.16,4,11.16c2.61,3,6.1,4.67,9.82,4.7l78.07,0.63
				c0.03,0,0.07,0,0.1,0c7.63,0,13.86-6.99,13.92-15.63l0.55-87.65c0.03-4.2-1.39-8.16-4-11.16c-2.61-3-6.1-4.67-9.82-4.7
				l-78.07-0.63C1011.22,481.27,1011.18,481.27,1011.15,481.27z"/>
		</g>
		<g>
		</g>
	</g>
	<g>
		<g>
			<path class="st43" d="M1049.91,548.61c-20.99,0-38.07-13.97-38.07-31.13c0-17.17,17.08-31.13,38.07-31.13
				c20.99,0,38.07,13.97,38.07,31.13h-15.66c0-8.39-10.27-15.47-22.42-15.47c-12.15,0-22.42,7.09-22.42,15.47
				c0,8.39,10.27,15.47,22.42,15.47V548.61z"/>
		</g>
		<g>
			<path class="st44" d="M1080.16,564.08c0,12.87-13.54,23.3-30.25,23.3s-30.25-10.43-30.25-23.3"/>
			<path class="st43" d="M1049.91,595.21c-20.99,0-38.07-13.97-38.07-31.13h15.66c0,8.39,10.27,15.47,22.42,15.47
				c12.15,0,22.42-7.09,22.42-15.47h15.66C1087.99,581.25,1070.91,595.21,1049.91,595.21z"/>
		</g>
		<g>
			<path class="st42" d="M1049.91,540.78c16.7,0,30.25,10.43,30.25,23.3"/>
			<path class="st43" d="M1087.99,564.08h-15.66c0-8.39-10.27-15.47-22.42-15.47v-15.66
				C1070.91,532.95,1087.99,546.92,1087.99,564.08z"/>
		</g>
	</g>
</g>
</svg>
